<?xml version="1.0" encoding="utf-8"?>
<svg viewBox="6.043 0.251 40.819 42.222" width="40.819" height="42.222" xmlns="http://www.w3.org/2000/svg">
  <path style="fill: rgb(155, 223, 193);" d="M 31.889 30.475 C 31.482 30.475 31.078 30.302 30.797 29.964 C 30.295 29.361 30.377 28.467 30.979 27.965 C 31.413 27.604 32.2 27.092 33.695 26.198 C 34.368 25.797 35.239 26.016 35.642 26.689 C 36.044 27.361 35.824 28.233 35.152 28.636 C 34.627 28.949 33.237 29.78 32.797 30.147 C 32.532 30.367 32.209 30.475 31.889 30.475 Z"/>
  <path style="fill: rgb(73, 138, 104);" d="M 22.017 35.31 C 15.391 35.31 12.72 33.387 9.551 29.427 C 8.615 28.257 5.633 21.105 6.51 21.822 C 9.806 24.515 11.039 29.279 13.156 27.456 L 22.017 35.31 Z"/>
  <path style="opacity: 0.1;" d="M 10.852 28.234 C 10.926 30.35 9.895 30.091 11.472 31.567 C 14.702 31.934 18.913 35.31 22.017 35.31 L 13.156 27.456 C 12.478 28.041 11.83 27.827 10.852 28.234 Z"/>
  <g style="" transform="matrix(0.09347, 0, 0, 0.09347, 0, -5.383536)">
    <path style="fill:#498A68;" d="M203.814,504.5c-0.601,0-1.207-0.023-1.816-0.07c-12.866-0.989-22.496-12.222-21.506-25.089 c0.898-11.677-0.065-50.623-1.74-59.246c-3.845-11.577,1.905-24.312,13.367-28.982c11.951-4.866,25.586,0.873,30.456,12.824 c6.298,15.462,4.8,75.246,4.512,78.986C226.145,495.181,215.906,504.5,203.814,504.5z M179.285,421.543 c0.003,0.008,0.007,0.017,0.01,0.026C179.292,421.561,179.288,421.551,179.285,421.543z"/>
    <path style="fill:#498A68;" d="M288.556,504.5c-0.602,0-1.208-0.023-1.819-0.07c-12.866-0.99-22.495-12.224-21.504-25.091 c0.899-11.674-0.064-50.612-1.74-59.241c-3.846-11.577,1.903-24.311,13.365-28.983c11.945-4.869,25.585,0.869,30.457,12.821 c6.302,15.466,4.801,75.25,4.513,78.991C310.884,495.182,300.646,504.5,288.556,504.5z M264.028,421.547 c0.002,0.008,0.006,0.017,0.009,0.025C264.035,421.564,264.03,421.555,264.028,421.547z"/>
  </g>
  <path style="opacity: 0.1;" d="M 29.181 37.731 C 29.178 35.875 29.098 33.289 28.725 32.372 C 28.269 31.255 26.994 30.719 25.878 31.174 C 24.806 31.61 24.269 32.801 24.629 33.883 C 24.754 34.529 24.837 36.997 24.821 38.512 C 26.507 38.402 27.952 38.144 29.181 37.731 Z"/>
  <path style="opacity: 0.1;" d="M 17.958 31.174 C 16.886 31.61 16.348 32.8 16.708 33.883 C 16.817 34.446 16.894 36.393 16.902 37.887 C 18.141 38.246 19.585 38.461 21.256 38.54 C 21.275 36.725 21.236 33.433 20.804 32.373 C 20.348 31.255 19.074 30.719 17.958 31.174 Z"/>
  <path style="fill: rgb(92, 179, 142);" d="M 32.763 27.604 C 32.763 32.702 32.071 36.392 22.792 36.392 C 13.513 36.392 12.82 32.702 12.82 27.604 C 12.82 22.505 17.285 18.372 22.792 18.372 C 28.299 18.372 32.763 22.505 32.763 27.604 Z"/>
  <path style="fill: rgb(155, 223, 193);" d="M 32.763 27.604 C 32.763 27.563 32.763 27.523 32.762 27.482 C 30.685 26.95 26.565 26.795 23.699 29.841 C 21.61 32.061 21.307 34.457 21.532 36.367 C 21.933 36.384 22.353 36.392 22.792 36.392 C 32.071 36.392 32.763 32.702 32.763 27.604 Z"/>
  <path style="opacity: 0.05;" d="M 20.9 18.539 C 16.298 19.357 12.82 23.105 12.82 27.604 C 12.82 32.325 13.415 35.837 20.87 36.332 C 16.731 32.131 17.532 23.457 20.9 18.539 Z"/>
  <path style="fill: rgb(92, 179, 142);" d="M 31.945 5.076 L 31.945 5.076 C 30.242 2.501 27.361 0.952 24.274 0.952 L 20.479 0.952 C 15.085 0.952 10.712 5.325 10.712 10.72 L 10.712 15.212 C 10.712 20.053 14.636 23.978 19.478 23.978 L 39.593 23.978 C 43.221 23.978 46.161 21.038 46.161 17.411 L 46.161 14.354 C 46.161 10.727 43.221 7.786 39.593 7.786 L 36.988 7.786 C 34.958 7.786 33.064 6.769 31.945 5.076 Z"/>
  <ellipse style="fill: rgb(129, 0, 0);" cx="38.294" cy="18.018" rx="3.069" ry="3.464"/>
  <g style="opacity: 0.1;" transform="matrix(0.09347, 0, 0, 0.09347, 0, -5.383536)">
    <circle cx="171.36" cy="243.18" r="7.192"/>
    <circle cx="222.5" cy="254.15" r="7.192"/>
    <circle cx="193.24" cy="278.68" r="7.192"/>
  </g>
  <path style="opacity: 0.05;" d="M 18.309 1.195 C 13.959 2.181 10.712 6.071 10.712 10.72 L 10.712 15.212 C 10.712 20.053 14.636 23.978 19.478 23.978 L 24.798 23.978 C 17.051 19.47 15.737 7.079 18.309 1.195 Z"/>
  <g style="" transform="matrix(0.09347, 0, 0, 0.09347, 0, -5.383536)">
    <circle style="fill:#FFFFFF;" cx="200.43" cy="118.42" r="33.966"/>
    <circle style="fill:#FFFFFF;" cx="285.88" cy="118.42" r="33.966"/>
  </g>
  <path style="fill: rgb(155, 223, 193);" d="M 21.397 30.475 C 21.053 30.475 20.709 30.352 20.436 30.1 C 20.083 29.776 19.335 29.111 18.292 28.3 C 17.673 27.819 17.562 26.927 18.042 26.308 C 18.524 25.689 19.416 25.577 20.035 26.058 C 21.158 26.932 21.972 27.656 22.357 28.01 C 22.935 28.541 22.972 29.439 22.442 30.017 C 22.161 30.321 21.779 30.475 21.397 30.475 Z"/>
  <path d="M 38.294 13.854 C 36.215 13.854 34.524 15.721 34.524 18.018 C 34.524 20.315 36.215 22.183 38.294 22.183 C 40.372 22.183 42.064 20.315 42.064 18.018 C 42.064 15.721 40.372 13.854 38.294 13.854 Z M 38.294 20.781 C 36.988 20.781 35.927 19.542 35.927 18.018 C 35.927 16.495 36.988 15.256 38.294 15.256 C 39.599 15.256 40.662 16.495 40.662 18.018 C 40.662 19.542 39.599 20.781 38.294 20.781 Z M 36.152 11.89 C 36.523 11.89 36.824 11.588 36.824 11.217 C 36.824 10.846 36.523 10.545 36.152 10.545 C 35.78 10.545 35.48 10.846 35.48 11.217 C 35.48 11.588 35.78 11.89 36.152 11.89 Z M 40.436 11.89 C 40.807 11.89 41.108 11.588 41.108 11.217 C 41.108 10.846 40.807 10.545 40.436 10.545 C 40.064 10.545 39.764 10.846 39.764 11.217 C 39.764 11.588 40.064 11.89 40.436 11.89 Z M 39.593 7.086 L 36.988 7.086 C 35.188 7.086 33.522 6.189 32.53 4.689 C 30.692 1.91 27.606 0.251 24.274 0.251 L 20.479 0.251 C 14.707 0.251 10.01 4.947 10.01 10.72 L 10.01 15.212 C 10.01 18.168 11.39 20.854 13.57 22.604 C 12.662 24.05 11.906 24.802 11.864 26.489 C 12.128 27.035 9.665 24.316 9.008 23.692 C 8.423 23.137 6.437 20.612 6.147 21.408 C 5.858 22.197 6.236 23.727 6.506 24.523 C 7.381 27.101 12.211 34.997 15.897 35.262 C 15.998 35.312 16.231 35.231 16.162 36.055 C 16.211 37.376 16.215 38.793 16.172 39.366 C 16.049 40.953 17.241 42.342 18.828 42.464 C 18.903 42.47 18.978 42.473 19.051 42.473 C 20.547 42.473 21.81 41.303 21.924 39.808 C 21.938 39.632 21.972 38.47 21.956 37.083 C 22.229 37.09 22.507 37.093 22.792 37.093 C 23.249 37.093 23.688 37.084 24.111 37.066 C 24.131 38.06 24.125 38.95 24.092 39.366 C 23.97 40.952 25.161 42.342 26.748 42.464 C 26.823 42.47 26.898 42.473 26.971 42.473 C 27.912 42.473 28.795 42.011 29.336 41.238 C 29.557 40.921 29.48 40.483 29.163 40.262 C 28.845 40.04 28.408 40.118 28.186 40.435 C 27.887 40.864 27.381 41.106 26.855 41.066 C 26.039 41.004 25.427 40.289 25.491 39.474 C 25.531 38.945 25.531 37.925 25.512 36.97 C 26.627 36.859 27.608 36.672 28.464 36.407 C 28.478 37.015 28.48 37.579 28.479 38.003 C 28.478 38.391 28.791 38.705 29.177 38.706 L 29.18 38.706 C 29.566 38.706 29.88 38.394 29.881 38.007 C 29.883 37.455 29.878 36.669 29.851 35.855 C 30.637 35.458 31.28 34.963 31.79 34.366 C 32.69 33.313 33.109 32.017 33.303 30.639 C 33.762 30.283 35.066 29.502 35.511 29.237 C 36.514 28.637 36.843 27.332 36.244 26.329 C 35.644 25.325 34.34 24.997 33.335 25.597 C 33.308 25.613 33.283 25.628 33.257 25.643 C 33.187 25.318 33.099 24.997 32.994 24.679 L 39.593 24.679 C 43.602 24.679 46.862 21.419 46.862 17.411 L 46.862 14.354 C 46.862 10.347 43.602 7.086 39.593 7.086 Z M 33.454 27.162 C 33.639 27.05 33.837 26.93 34.054 26.8 C 34.395 26.597 34.837 26.708 35.04 27.048 C 35.243 27.389 35.132 27.83 34.789 28.035 C 34.353 28.296 33.875 28.585 33.447 28.855 C 33.461 28.438 33.465 28.02 33.465 27.604 C 33.465 27.456 33.461 27.309 33.454 27.162 Z M 10.482 29.032 C 9.158 27.024 6.626 23.973 6.614 22.227 C 6.61 21.669 9.708 26.097 10.002 26.468 C 11.114 27.87 9.931 26.322 11.816 28.492 C 11.895 30.459 12.616 32.268 10.482 29.032 Z M 20.527 39.701 C 20.467 40.47 19.819 41.071 19.051 41.071 C 19.012 41.071 18.973 41.069 18.935 41.066 C 18.119 41.004 17.507 40.289 17.57 39.474 C 17.616 38.878 17.611 37.667 17.581 36.539 C 18.45 36.768 19.438 36.925 20.554 37.012 C 20.572 38.424 20.536 39.582 20.527 39.701 Z M 45.46 17.411 C 45.46 20.646 42.828 23.278 39.593 23.278 L 21.679 23.278 C 21.292 23.278 20.978 23.592 20.978 23.978 C 20.978 24.366 21.292 24.68 21.679 24.68 L 31.503 24.68 C 31.875 25.614 32.063 26.596 32.063 27.604 C 32.063 30.25 31.839 32.15 30.724 33.455 C 30.273 33.982 29.676 34.413 28.918 34.75 C 28.876 34.763 28.835 34.781 28.797 34.802 C 27.761 35.239 26.434 35.511 24.781 35.626 C 24.778 35.626 24.775 35.626 24.772 35.626 C 24.752 35.627 24.732 35.629 24.712 35.631 C 24.115 35.671 23.476 35.691 22.792 35.691 C 22.277 35.691 21.786 35.68 21.321 35.657 C 21.295 35.654 21.269 35.653 21.243 35.653 C 21.242 35.653 21.241 35.653 21.239 35.653 C 19.58 35.567 18.231 35.335 17.159 34.947 C 17.114 34.925 17.066 34.907 17.016 34.893 C 16.799 34.81 16.184 34.642 15.991 34.546 C 15.959 34.526 14.159 33.727 13.886 33.117 C 13.366 31.956 13.522 31.172 13.522 27.604 C 13.522 26.118 13.937 24.675 14.726 23.397 C 15.777 24.01 16.957 24.429 18.224 24.597 C 18.607 24.648 18.96 24.377 19.011 23.994 C 19.062 23.61 18.791 23.258 18.408 23.207 C 14.42 22.679 11.412 19.241 11.412 15.211 L 11.412 10.72 C 11.412 5.721 15.48 1.652 20.479 1.652 L 24.274 1.652 C 27.134 1.652 29.783 3.077 31.36 5.462 C 32.613 7.357 34.716 8.488 36.988 8.488 L 39.594 8.488 C 42.828 8.488 45.46 11.119 45.46 14.354 L 45.46 17.411 Z M 26.72 4.874 C 26.273 4.874 25.909 5.237 25.909 5.685 C 25.909 6.133 26.273 6.496 26.72 6.496 C 27.169 6.496 27.532 6.133 27.532 5.685 C 27.532 5.237 27.169 4.874 26.72 4.874 Z M 17.489 25.878 C 16.772 26.801 16.939 28.136 17.862 28.853 C 18.885 29.649 19.617 30.3 19.962 30.617 C 20.096 30.741 20.266 30.802 20.436 30.802 C 20.625 30.802 20.814 30.725 20.952 30.575 C 21.214 30.29 21.195 29.847 20.91 29.584 C 20.55 29.253 19.786 28.573 18.723 27.747 C 18.409 27.504 18.353 27.051 18.597 26.738 C 18.839 26.425 19.292 26.369 19.605 26.611 C 20.708 27.469 21.505 28.179 21.883 28.526 C 22.168 28.788 22.611 28.77 22.874 28.485 C 23.136 28.2 23.117 27.756 22.831 27.494 C 22.438 27.133 21.608 26.393 20.465 25.505 C 19.542 24.788 18.208 24.954 17.489 25.878 Z M 19.545 5.685 C 19.545 5.237 19.182 4.874 18.734 4.874 C 18.286 4.874 17.923 5.237 17.923 5.685 C 17.923 6.133 18.286 6.496 18.734 6.496 C 19.182 6.496 19.545 6.133 19.545 5.685 Z" style=""/>
</svg>