<?xml version="1.0" encoding="utf-8"?>
<svg viewBox="0 0 20.911 20.911" width="20.911" height="20.911" xmlns="http://www.w3.org/2000/svg">
  <path style="fill: rgb(237, 138, 25);" d="M 18.726 2.185 C 16.273 -0.268 12.296 -0.268 9.843 2.185 C 8.582 3.446 8.08 5.221 8.116 6.873 C 8.116 6.873 8.363 9.588 6.142 11.808 C 5.733 12.217 5.733 12.88 6.142 13.289 C 6.551 13.698 7.213 13.698 7.622 13.289 C 7.213 13.698 7.213 14.36 7.622 14.769 C 8.031 15.178 8.694 15.178 9.103 14.769 C 11.323 12.549 14.037 12.795 14.037 12.795 C 15.69 12.831 17.464 12.329 18.726 11.068 C 21.179 8.615 21.179 4.638 18.726 2.185 Z"/>
  <path style="fill: rgb(242, 236, 191);" d="M 5.895 16.99 L 7.915 14.97 C 7.81 14.92 7.71 14.856 7.623 14.769 C 7.214 14.36 7.214 13.697 7.623 13.288 C 7.214 13.697 6.551 13.697 6.142 13.288 C 6.055 13.201 5.991 13.102 5.941 12.996 L 3.921 15.016 C 3.103 14.198 1.778 14.198 0.96 15.016 C 0.142 15.833 0.142 17.159 0.96 17.977 C 1.34 18.356 1.944 18.443 2.441 18.47 C 2.468 18.967 2.554 19.571 2.934 19.951 C 3.752 20.769 5.077 20.769 5.895 19.951 C 6.713 19.133 6.713 17.808 5.895 16.99 Z"/>
  <g style="" transform="matrix(0.040843, 0, 0, 0.040843, 0, 0)">
    <path style="" d="M204.75,377.629c-8.748,0-17.497-3.329-24.154-9.986c-7.204-7.204-10.515-16.857-9.926-26.305 c-9.764,0.529-19.357-2.987-26.322-9.943c-13.323-13.323-13.323-35.002,0-48.317c50.707-50.715,45.919-113.405,45.867-114.028 c-1.05-47.993,15.269-92.102,44.758-121.582c63.287-63.279,166.271-63.279,229.558,0l0,0c63.287,63.296,63.287,166.263,0,229.558 c-29.471,29.48-73.495,45.611-121.001,44.792c-1.195-0.102-63.893-4.882-114.609,45.833 C222.256,374.3,213.499,377.629,204.75,377.629z M192.665,331.394c-6.666,6.666-6.666,17.514,0,24.18 c6.666,6.649,17.514,6.649,24.18,0c56.545-56.553,124.748-51.048,127.633-50.801c42.103,0.956,81.774-13.622,107.977-39.825 c56.63-56.63,56.63-148.783,0-205.413s-148.783-56.63-205.421,0c-26.211,26.203-40.712,65.78-39.79,108.574 c0.23,2.287,5.718,70.491-50.826,127.044c-6.666,6.666-6.666,17.514,0,24.18c6.461,6.452,17.719,6.461,24.18,0 c3.337-3.337,8.74-3.337,12.069,0c1.664,1.664,2.501,3.849,2.501,6.034S194.329,329.73,192.665,331.394z"/>
    <path style="" d="M241.016,182.859c-0.179,0-0.358-0.009-0.546-0.017c-4.703-0.299-8.279-4.353-7.98-9.056 c2.151-34.191,6.444-69.765,32.681-96.113c3.329-3.329,8.731-3.354,12.069-0.026c3.337,3.329,3.354,8.731,0.026,12.077 c-22.046,22.131-25.784,54.189-27.739,85.128C249.235,179.385,245.479,182.859,241.016,182.859z"/>
    <path style="" d="M216.827,279.518c-1.434,0-2.893-0.358-4.225-1.127c-4.088-2.33-5.514-7.554-3.175-11.642 c3.636-6.35,5.505-13.545,7.485-21.15c1.178-4.541,2.381-9.107,3.943-13.648c1.536-4.447,6.401-6.811,10.848-5.292 c4.455,1.536,6.828,6.384,5.292,10.848c-1.417,4.114-2.492,8.27-3.559,12.393c-2.176,8.356-4.421,16.985-9.175,25.315 C222.674,277.974,219.789,279.518,216.827,279.518z"/>
    <path style="" d="M351.613,279.535c-0.666,0-1.34-0.009-2.006-0.017c-4.711-0.085-8.467-3.969-8.39-8.68 c0.077-4.72,3.653-8.177,8.68-8.39c0.572,0.009,1.144,0.017,1.716,0.017c40.388,0,76.764-23.924,93.015-61.341 c1.878-4.319,6.905-6.299,11.232-4.43c4.327,1.878,6.307,6.905,4.43,11.224C441.307,251.609,398.811,279.535,351.613,279.535z"/>
    <path style="" d="M458.488,158.696c-4.711,0-8.535-3.815-8.535-8.535c0-20.168-10.618-43.315-27.713-60.42 c-3.329-3.337-3.329-8.74,0-12.069c3.329-3.337,8.74-3.337,12.069,0c20.177,20.185,32.706,47.958,32.706,72.488 C467.024,154.881,463.2,158.696,458.488,158.696z"/>
    <path style="" d="M93.854,460.811h-0.009l-34.089-0.051c-4.711-0.009-8.527-3.832-8.527-8.552 c0.009-4.711,3.824-8.518,8.535-8.518h0.009l34.089,0.051c4.711,0.009,8.527,3.832,8.527,8.552 C102.381,457.004,98.557,460.811,93.854,460.811z"/>
    <path style="" d="M108.091,511.987c-15.312,0-30.624-5.829-42.283-17.48c-9.465-9.465-12.726-22.985-13.972-34.354 c-11.369-1.255-24.888-4.515-34.354-13.98c-23.309-23.309-23.309-61.256,0-84.565c21.269-21.244,54.701-23.121,78.104-5.599 l43.836-43.836c1.955-1.963,4.737-2.859,7.485-2.373c2.731,0.469,5.061,2.236,6.256,4.745c0.93,1.955,1.997,3.516,3.269,4.797 c6.444,6.427,17.71,6.435,24.171-0.009c3.337-3.337,8.74-3.337,12.069,0c1.664,1.664,2.501,3.849,2.501,6.034 s-0.836,4.37-2.501,6.034c-6.666,6.666-6.666,17.514,0,24.18c1.255,1.246,2.825,2.313,4.788,3.252 c2.501,1.195,4.268,3.525,4.745,6.256c0.469,2.731-0.418,5.522-2.381,7.485l-43.836,43.845 c17.522,23.395,15.662,56.835-5.608,78.096C138.723,506.166,123.403,511.987,108.091,511.987z M59.765,361.19 c-10.942,0-21.884,4.157-30.214,12.487c-16.66,16.66-16.66,43.768,0,60.428c7.511,7.511,21.107,9.073,30.683,9.602 c4.344,0.23,7.818,3.713,8.057,8.049c0.521,9.568,2.083,23.164,9.593,30.683c16.66,16.652,43.768,16.652,60.428,0 c16.66-16.66,16.66-43.768,0-60.428c-3.337-3.337-3.337-8.731,0-12.069l42.291-42.291c-7.204-7.212-10.515-16.865-9.926-26.314 c-9.713,0.597-19.357-2.979-26.322-9.943c0,0,0-0.009-0.009-0.009l-42.3,42.291c-3.337,3.337-8.731,3.337-12.069,0 C81.649,365.355,70.699,361.19,59.765,361.19z"/>
    <path style="" d="M59.765,460.76c-4.711,0-8.527-3.807-8.535-8.518l-0.051-34.089 c-0.009-4.72,3.807-8.544,8.527-8.552h0.009c4.711,0,8.527,3.807,8.535,8.518l0.051,34.089c0.009,4.72-3.807,8.544-8.527,8.552 C59.774,460.76,59.765,460.76,59.765,460.76z"/>
  </g>
  <g style="" transform="matrix(0.040843, 0, 0, 0.040843, 0, 0)"/>
  <g style="" transform="matrix(0.040843, 0, 0, 0.040843, 0, 0)"/>
  <g style="" transform="matrix(0.040843, 0, 0, 0.040843, 0, 0)"/>
  <g style="" transform="matrix(0.040843, 0, 0, 0.040843, 0, 0)"/>
  <g style="" transform="matrix(0.040843, 0, 0, 0.040843, 0, 0)"/>
  <g style="" transform="matrix(0.040843, 0, 0, 0.040843, 0, 0)"/>
  <g style="" transform="matrix(0.040843, 0, 0, 0.040843, 0, 0)"/>
  <g style="" transform="matrix(0.040843, 0, 0, 0.040843, 0, 0)"/>
  <g style="" transform="matrix(0.040843, 0, 0, 0.040843, 0, 0)"/>
  <g style="" transform="matrix(0.040843, 0, 0, 0.040843, 0, 0)"/>
  <g style="" transform="matrix(0.040843, 0, 0, 0.040843, 0, 0)"/>
  <g style="" transform="matrix(0.040843, 0, 0, 0.040843, 0, 0)"/>
  <g style="" transform="matrix(0.040843, 0, 0, 0.040843, 0, 0)"/>
  <g style="" transform="matrix(0.040843, 0, 0, 0.040843, 0, 0)"/>
  <g style="" transform="matrix(0.040843, 0, 0, 0.040843, 0, 0)"/>
</svg>