<?xml version="1.0" encoding="utf-8"?>
<svg viewBox="1.841 2.664 20.058 24.113" width="20.058" height="24.113" xmlns="http://www.w3.org/2000/svg">
  <path d="M 9.543 23.452 C 12.553 22.14 10.112 18.691 14.398 16.658 C 18.195 14.857 22.165 14.31 21.465 8.846 C 20.77 3.417 11.034 0.463 5.293 5.914 C -0.688 11.592 2.68 26.443 9.543 23.452 Z" fill="#ff7b8b" style=""/>
  <path d="M 9.168 22.057 C 10.693 21.395 10.023 16.595 13.973 15.209 C 17.62 13.93 20.524 12.349 20.338 9.385 C 20.085 5.355 11.273 2.242 6.284 7.135 C 1.418 11.906 3.762 24.4 9.168 22.057 Z" fill="#ff4755" style=""/>
  <path d="M 14.398 16.658 C 10.112 18.691 12.553 22.14 9.543 23.452 C 5.169 25.358 2.215 20.018 2.195 14.423 L 2.195 14.423 L 2.203 16.748 L 2.204 16.748 C 2.273 21.827 4.918 26.916 9.484 26.388 C 12.708 26.014 12.536 20.455 14.398 19.322 C 17.732 17.294 21.571 17.007 21.541 12.601 L 21.542 12.601 L 21.542 10.264 C 21.418 14.424 17.838 15.027 14.398 16.658 Z" fill="#994e37" style=""/>
  <path d="M 13.974 18.474 C 11.535 20.146 12.284 25.167 9.06 25.54 C 6.519 25.834 4.574 24.388 3.336 22.173 C 4.529 24.856 6.632 26.718 9.484 26.388 C 12.708 26.014 12.536 20.455 14.398 19.322 C 17.732 17.294 21.571 17.007 21.541 12.601 L 21.542 12.601 L 21.542 10.264 C 21.546 16.137 17.193 16.268 13.974 18.474 Z" fill="#8c4534" style=""/>
  <ellipse cx="12.296" cy="9.718" fill="#f4e9d3" rx="1.968" ry="1.283" style=""/>
  <path d="M 12.296 10.154 C 11.437 10.154 10.707 9.795 10.438 9.294 C 10.367 9.427 10.328 9.569 10.328 9.718 C 10.328 10.427 11.209 11.001 12.296 11.001 C 13.383 11.001 14.265 10.427 14.265 9.718 C 14.265 9.569 14.226 9.427 14.154 9.294 C 13.886 9.795 13.155 10.154 12.296 10.154 Z" fill="#e5d6be" style=""/>
  <path d="M 21.816 8.801 C 21.662 7.597 21.076 6.447 20.123 5.477 C 19.227 4.564 18.024 3.822 16.642 3.33 C 14.806 2.676 12.723 2.496 10.777 2.823 C 8.6 3.187 6.62 4.168 5.051 5.658 C 4.413 6.264 3.856 6.99 3.395 7.818 C 3.301 7.988 3.362 8.203 3.532 8.298 C 3.703 8.393 3.918 8.332 4.013 8.161 C 4.439 7.396 4.952 6.726 5.537 6.17 C 7.004 4.777 8.856 3.861 10.894 3.52 C 12.723 3.213 14.681 3.382 16.405 3.996 C 17.686 4.452 18.798 5.135 19.619 5.972 C 20.463 6.831 20.98 7.841 21.115 8.891 C 21.346 10.697 21.075 12.01 20.263 13.023 C 19.541 13.923 18.461 14.513 17.062 15.122 C 16.895 15.195 16.809 15.39 16.869 15.562 C 16.937 15.754 17.158 15.851 17.344 15.77 C 18.904 15.091 20.354 14.328 21.183 12.942 C 21.06 15.744 19.164 16.616 16.786 17.711 C 15.941 18.099 15.069 18.5 14.215 19.02 C 13.349 19.547 12.905 20.809 12.435 22.144 C 12.27 22.614 12.099 23.101 11.908 23.558 C 11.838 23.724 11.909 23.921 12.068 24.006 C 12.249 24.103 12.481 24.02 12.559 23.83 C 12.758 23.354 12.933 22.858 13.102 22.379 C 13.528 21.165 13.931 20.019 14.582 19.623 C 15.401 19.125 16.255 18.732 17.081 18.352 C 19.563 17.21 21.908 16.132 21.895 12.622 C 21.896 12.615 21.896 12.607 21.896 12.6 L 21.896 10.264 C 21.909 9.817 21.884 9.331 21.816 8.801 Z" style=""/>
  <path d="M 11.782 24.657 C 11.619 24.55 11.4 24.596 11.293 24.759 C 10.781 25.543 10.194 25.949 9.445 26.036 C 8.014 26.201 6.727 25.792 5.619 24.818 C 4.493 23.829 3.618 22.288 3.097 20.471 C 3.55 21.444 4.11 22.271 4.749 22.886 C 5.425 23.538 6.176 23.952 6.981 24.117 C 7.244 24.171 7.511 24.198 7.781 24.198 C 8.401 24.198 9.038 24.057 9.685 23.775 C 11.225 23.104 11.499 21.897 11.763 20.729 C 12.065 19.391 12.379 18.006 14.551 16.976 C 15.052 16.739 15.562 16.521 16.038 16.321 C 16.219 16.245 16.303 16.038 16.227 15.858 C 16.152 15.679 15.945 15.594 15.765 15.669 C 15.281 15.872 14.761 16.095 14.247 16.338 C 11.766 17.515 11.382 19.211 11.074 20.573 C 10.817 21.705 10.615 22.598 9.403 23.127 C 8.61 23.472 7.843 23.573 7.123 23.425 C 6.451 23.287 5.817 22.935 5.239 22.378 C 3.999 21.183 3.079 19.095 2.717 16.649 C 2.341 14.108 2.595 11.533 3.432 9.398 C 3.503 9.217 3.414 9.012 3.232 8.94 C 3.05 8.869 2.845 8.959 2.774 9.141 C 2.125 10.794 1.809 12.694 1.844 14.642 L 1.851 16.749 C 1.851 16.762 1.852 16.774 1.853 16.787 C 1.909 20.33 3.172 23.608 5.153 25.349 C 6.223 26.29 7.49 26.777 8.85 26.777 C 9.072 26.777 9.298 26.764 9.526 26.737 C 10.486 26.626 11.258 26.105 11.884 25.145 C 11.991 24.982 11.945 24.763 11.782 24.657 Z" style=""/>
  <path d="M 12.297 11.354 C 13.599 11.354 14.618 10.635 14.618 9.717 C 14.618 8.8 13.599 8.081 12.297 8.081 C 10.995 8.081 9.976 8.8 9.976 9.717 C 9.976 10.635 10.995 11.354 12.297 11.354 Z M 12.297 8.787 C 13.157 8.787 13.912 9.222 13.912 9.717 C 13.912 10.213 13.157 10.648 12.297 10.648 C 11.437 10.648 10.682 10.213 10.682 9.717 C 10.682 9.222 11.437 8.787 12.297 8.787 Z" style=""/>
</svg>