<?xml version="1.0" encoding="utf-8"?>
<svg viewBox="0.001 0 18.007 20.485" width="18.007" height="20.485" xmlns="http://www.w3.org/2000/svg">
  <path d="M 17.451 18.829 C 17.636 18.473 17.699 18.139 17.707 17.865 C 17.721 17.402 17.368 17.012 16.905 16.982 C 16.537 16.957 16.195 17.016 15.906 17.102 C 15.283 17.287 14.939 17.953 15.148 18.568 C 15.246 18.854 15.396 19.166 15.629 19.453 C 15.921 19.813 16.443 19.875 16.813 19.596 C 17.033 19.43 17.266 19.186 17.451 18.829 Z M 17.451 18.829" fill="#a82b2b" style=""/>
  <path d="M 3.45 0.3 C 3.048 0.3 2.723 0.396 2.475 0.516 C 2.058 0.716 1.874 1.208 2.059 1.633 C 2.207 1.971 2.415 2.248 2.624 2.466 C 3.075 2.935 3.824 2.935 4.275 2.466 C 4.485 2.248 4.693 1.971 4.841 1.633 C 5.026 1.208 4.842 0.716 4.424 0.516 C 4.176 0.396 3.851 0.3 3.45 0.3 Z M 3.45 0.3" fill="#a82b2b" style=""/>
  <path d="M 4.815 1.688 C 4.669 2.002 4.473 2.261 4.275 2.466 C 3.824 2.935 3.075 2.935 2.624 2.466 C 2.457 2.293 2.292 2.082 2.156 1.832 C 2.991 1.441 3.946 1.417 4.815 1.688 Z M 4.815 1.688" fill="#8e2424" style=""/>
  <path d="M 16.886 16.981 C 16.896 18.003 16.491 18.942 15.822 19.628 C 15.75 19.582 15.686 19.523 15.629 19.453 C 15.396 19.166 15.246 18.854 15.148 18.568 C 14.939 17.952 15.282 17.287 15.905 17.101 C 16.191 17.017 16.525 16.96 16.886 16.981 Z M 16.886 16.981" fill="#8e2424" style=""/>
  <path d="M 13.403 13.274 C 12.224 12.992 11.157 12.611 10.181 11.858 C 8.613 10.647 7.719 8.835 7.431 6.897 C 7.244 5.646 7.419 4.579 6.555 3.523 C 5.441 2.16 3.316 1.714 1.836 2.768 C -0.145 4.178 0.222 7.22 0.597 9.275 C 1.153 12.317 2.68 15.133 5.147 17.041 C 6.164 17.827 7.268 18.502 8.438 19.034 C 9.782 19.646 11.307 20.272 12.811 20.175 C 14.741 20.051 16.205 18.385 16.08 16.454 C 15.98 14.916 14.855 13.622 13.403 13.274 Z M 13.403 13.274" fill="#ea4444" style=""/>
  <path d="M 13.078 20.148 C 14.255 19.522 15.02 18.247 14.929 16.829 C 14.83 15.291 14.163 14.457 12.709 14.109 C 11.531 13.827 10.005 12.985 9.03 12.232 C 7.462 11.021 6.568 9.209 6.28 7.271 C 6.093 6.02 6.268 4.953 5.404 3.898 C 4.62 2.938 3.334 2.432 2.125 2.586 C 3.582 1.775 5.511 2.246 6.556 3.523 C 7.419 4.579 7.245 5.646 7.431 6.897 C 7.72 8.834 8.613 10.647 10.181 11.858 C 11.157 12.611 12.224 12.992 13.403 13.274 C 14.855 13.622 15.98 14.916 16.08 16.454 C 16.199 18.295 14.874 19.895 13.078 20.148 Z M 13.078 20.148" fill="#d93131" style=""/>
  <g fill="#f89696" style="" transform="matrix(0.04001, 0, 0, 0.04001, 0.000501, 0)">
    <path d="m147.671875 150.386719c4.496094 10.695312-.53125 23.007812-11.226563 27.503906l-57.179687 24.03125c-10.695313 4.496094-23.011719-.53125-27.503906-11.226563-4.496094-10.695312.53125-23.011718 11.226562-27.503906l57.179688-24.035156c10.695312-4.492188 23.007812.53125 27.503906 11.230469zm0 0"/>
    <path d="m171.011719 246.152344c4.34375 10.757812-.859375 23-11.617188 27.34375l-57.511719 23.214844c-10.761718 4.34375-23.003906-.855469-27.34375-11.617188-4.34375-10.757812.855469-23 11.617188-27.34375l57.511719-23.214844c10.757812-4.34375 23 .855469 27.34375 11.617188zm0 0"/>
    <path d="m226.25 319.496094c4.886719 10.523437.320312 23.015625-10.203125 27.902344l-56.253906 26.125c-10.523438 4.886718-23.015625.320312-27.902344-10.203126-4.886719-10.523437-.316406-23.015624 10.203125-27.902343l56.253906-26.125c10.523438-4.886719 23.015625-.316407 27.902344 10.203125zm0 0"/>
    <path d="m299.039062 382.804688c5.464844 10.234374 1.601563 22.960937-8.632812 28.429687l-54.707031 29.222656c-10.234375 5.464844-22.960938 1.601563-28.425781-8.632812-5.46875-10.234375-1.601563-22.960938 8.628906-28.425781l54.707031-29.222657c10.234375-5.46875 22.960937-1.605469 28.429687 8.628907zm0 0"/>
  </g>
  <path d="M 0.344 7.515 C 0.509 7.505 0.635 7.362 0.624 7.197 C 0.49 5.141 0.943 3.772 2.01 3.013 C 2.646 2.56 3.453 2.39 4.281 2.534 C 5.081 2.676 5.825 3.105 6.324 3.713 C 6.912 4.432 6.97 5.165 7.038 6.014 C 7.061 6.311 7.086 6.617 7.134 6.941 C 7.454 9.085 8.471 10.917 9.998 12.096 C 10.622 12.577 11.506 13.129 13.333 13.566 C 13.608 13.632 13.874 13.736 14.126 13.876 C 14.172 13.902 14.222 13.915 14.271 13.915 C 14.376 13.915 14.479 13.859 14.533 13.76 C 14.614 13.616 14.562 13.432 14.418 13.351 C 14.119 13.185 13.801 13.06 13.472 12.982 C 12.509 12.752 11.386 12.409 10.365 11.621 C 8.961 10.537 8.025 8.843 7.728 6.852 C 7.683 6.55 7.659 6.253 7.636 5.966 C 7.564 5.056 7.495 4.198 6.788 3.333 C 6.319 2.76 5.666 2.323 4.944 2.085 C 5.009 1.977 5.066 1.866 5.116 1.752 C 5.367 1.178 5.12 0.516 4.554 0.244 C 4.216 0.083 3.844 0 3.45 0 C 3.055 0 2.684 0.083 2.345 0.245 C 1.779 0.516 1.533 1.178 1.784 1.753 C 1.863 1.933 1.961 2.106 2.077 2.271 C 1.934 2.346 1.795 2.429 1.662 2.524 C 0.971 3.016 0.49 3.731 0.232 4.649 C 0.027 5.378 -0.041 6.224 0.025 7.235 C 0.036 7.401 0.179 7.526 0.344 7.515 Z M 2.606 0.786 C 2.862 0.663 3.146 0.6 3.45 0.6 C 3.753 0.6 4.037 0.663 4.295 0.786 C 4.567 0.917 4.686 1.236 4.565 1.512 C 4.501 1.658 4.422 1.799 4.326 1.935 C 3.747 1.842 3.178 1.879 2.651 2.039 C 2.521 1.873 2.414 1.696 2.334 1.512 C 2.213 1.236 2.332 0.917 2.606 0.786 Z M 2.606 0.786" style=""/>
  <path d="M 16.925 16.683 C 16.748 16.671 16.569 16.676 16.387 16.697 C 16.388 16.611 16.385 16.524 16.38 16.436 C 16.331 15.678 16.054 14.956 15.579 14.347 C 15.477 14.216 15.288 14.194 15.157 14.295 C 15.027 14.398 15.003 14.586 15.106 14.717 C 15.506 15.229 15.74 15.837 15.781 16.474 C 15.894 18.236 14.553 19.762 12.792 19.876 C 11.357 19.969 9.857 19.349 8.563 18.761 C 7.436 18.249 6.349 17.591 5.331 16.804 C 3.038 15.031 1.462 12.338 0.893 9.221 C 0.851 8.988 0.814 8.776 0.782 8.575 C 0.757 8.412 0.604 8.3 0.439 8.326 C 0.276 8.351 0.164 8.504 0.19 8.669 C 0.222 8.874 0.259 9.09 0.303 9.329 C 0.899 12.593 2.554 15.415 4.964 17.279 C 6.018 18.094 7.146 18.776 8.314 19.308 C 9.579 19.883 11.037 20.485 12.5 20.485 C 12.61 20.485 12.72 20.482 12.831 20.475 C 13.766 20.414 14.602 20.018 15.228 19.412 C 15.281 19.492 15.336 19.569 15.396 19.643 C 15.625 19.925 15.957 20.072 16.294 20.072 C 16.537 20.072 16.783 19.995 16.993 19.836 C 17.293 19.61 17.537 19.318 17.718 18.967 C 17.899 18.616 17.997 18.249 18.007 17.874 C 18.026 17.246 17.551 16.723 16.925 16.683 Z M 17.185 18.692 C 17.046 18.961 16.86 19.185 16.632 19.356 C 16.39 19.539 16.052 19.498 15.862 19.264 C 15.781 19.164 15.707 19.055 15.642 18.94 C 15.992 18.465 16.235 17.909 16.335 17.31 C 16.471 17.288 16.605 17.276 16.737 17.276 C 16.787 17.276 16.837 17.278 16.887 17.282 C 17.187 17.301 17.416 17.553 17.407 17.856 C 17.398 18.14 17.324 18.421 17.185 18.692 Z M 17.185 18.692" style=""/>
  <path d="M 3.288 8.356 L 5.577 7.394 C 5.857 7.277 6.075 7.056 6.19 6.774 C 6.306 6.492 6.304 6.182 6.185 5.901 C 6.068 5.62 5.848 5.402 5.566 5.286 C 5.283 5.171 4.973 5.173 4.692 5.291 L 2.404 6.253 C 2.123 6.37 1.905 6.591 1.79 6.873 C 1.675 7.155 1.677 7.465 1.795 7.746 C 1.913 8.027 2.133 8.245 2.415 8.361 C 2.554 8.417 2.701 8.446 2.846 8.446 C 2.996 8.446 3.146 8.415 3.288 8.356 Z M 2.349 7.514 C 2.292 7.381 2.291 7.233 2.346 7.1 C 2.401 6.967 2.504 6.862 2.637 6.806 L 4.924 5.845 C 4.992 5.816 5.063 5.802 5.134 5.802 C 5.203 5.802 5.272 5.815 5.339 5.842 C 5.472 5.897 5.577 6 5.632 6.133 C 5.748 6.408 5.618 6.725 5.344 6.841 L 3.055 7.802 C 2.923 7.859 2.776 7.859 2.642 7.805 C 2.509 7.75 2.404 7.647 2.349 7.514 Z M 2.349 7.514" style=""/>
  <path d="M 3.316 12.143 C 3.46 12.203 3.611 12.233 3.762 12.233 C 3.907 12.233 4.051 12.205 4.189 12.15 L 6.491 11.221 C 6.773 11.107 6.994 10.89 7.113 10.61 C 7.233 10.329 7.235 10.019 7.121 9.737 C 7.007 9.454 6.79 9.233 6.51 9.113 C 6.229 8.995 5.919 8.991 5.637 9.105 L 3.336 10.035 C 3.053 10.149 2.832 10.366 2.712 10.646 C 2.593 10.927 2.59 11.236 2.704 11.519 C 2.818 11.802 3.036 12.023 3.316 12.143 Z M 3.265 10.881 C 3.321 10.748 3.426 10.645 3.56 10.592 L 5.861 9.662 C 5.927 9.636 5.995 9.622 6.063 9.622 C 6.135 9.622 6.207 9.637 6.274 9.666 C 6.407 9.722 6.511 9.827 6.564 9.961 C 6.618 10.095 6.617 10.242 6.561 10.375 C 6.504 10.507 6.399 10.61 6.265 10.664 L 3.964 11.593 C 3.831 11.648 3.683 11.646 3.551 11.589 C 3.418 11.533 3.315 11.429 3.261 11.295 C 3.207 11.161 3.208 11.014 3.265 10.881 Z M 3.265 10.881" style=""/>
  <path d="M 5.648 15.254 C 5.776 15.3 5.909 15.324 6.041 15.324 C 6.204 15.324 6.368 15.289 6.52 15.217 L 8.771 14.172 C 9.341 13.907 9.59 13.228 9.325 12.657 C 9.06 12.087 8.38 11.838 7.81 12.103 L 5.559 13.149 C 4.989 13.413 4.74 14.092 5.005 14.664 C 5.134 14.939 5.362 15.15 5.648 15.254 Z M 5.813 13.693 L 8.063 12.647 C 8.136 12.613 8.213 12.597 8.29 12.597 C 8.494 12.597 8.689 12.713 8.781 12.91 C 8.906 13.18 8.788 13.502 8.518 13.627 L 6.267 14.673 C 6.137 14.734 5.99 14.74 5.854 14.691 C 5.718 14.64 5.611 14.541 5.55 14.41 C 5.425 14.14 5.542 13.819 5.813 13.693 Z M 5.813 13.693" style=""/>
  <path d="M 9.037 18.023 C 9.218 18.023 9.402 17.98 9.572 17.888 L 11.761 16.719 C 12.316 16.422 12.526 15.73 12.23 15.175 C 12.23 15.175 12.23 15.175 12.23 15.175 C 11.933 14.621 11.241 14.409 10.686 14.707 L 8.497 15.875 C 7.943 16.172 7.733 16.864 8.028 17.419 C 8.234 17.803 8.629 18.023 9.037 18.023 Z M 8.78 16.405 L 10.969 15.236 C 11.051 15.193 11.137 15.172 11.223 15.172 C 11.416 15.172 11.603 15.276 11.701 15.458 C 11.768 15.585 11.783 15.732 11.741 15.87 C 11.699 16.007 11.606 16.121 11.478 16.189 L 9.289 17.358 C 9.027 17.499 8.698 17.399 8.558 17.136 C 8.418 16.874 8.518 16.545 8.78 16.405 Z M 8.78 16.405" style=""/>
</svg>