<?xml version="1.0" encoding="utf-8"?>
<svg width="33.76" height="33.76" viewBox="0 0 33.76 33.76" xmlns="http://www.w3.org/2000/svg">
  <path style="fill: rgb(198, 74, 74);" d="M 19.672 1.294 L 14.702 7.098 L 14.702 8.187 C 18.623 8.187 21.885 5.36 22.56 1.634 C 21.624 1.421 20.656 1.309 19.672 1.294 Z"/>
  <path style="fill: rgb(212, 119, 119);" d="M 19.653 1.44 L 19.672 1.294 C 15.92 1.235 11.934 2.601 8.574 5.321 C 10.039 7.073 12.241 8.187 14.702 8.187 L 14.702 7.098 C 17.137 7.098 19.219 4.718 19.653 1.44 Z"/>
  <path style="fill: rgb(227, 165, 165);" d="M 32.124 13.734 C 32.811 12.78 33.216 11.611 33.216 10.346 C 33.216 7.416 31.047 4.995 28.227 4.596 C 26.888 3.349 25.317 2.461 23.614 1.921 C 23.62 1.89 23.626 1.859 23.632 1.828 C 23.739 1.236 23.346 0.67 22.754 0.562 C 22.163 0.455 21.596 0.848 21.489 1.44 C 21.353 2.186 21.1 2.884 20.752 3.519 L 13.777 31.773 C 14.799 32.67 16.139 33.216 17.606 33.216 C 20.187 33.216 22.374 31.532 23.13 29.203 C 23.992 28.677 24.826 28.069 25.622 27.385 C 26.379 27.485 27.171 27.245 27.753 26.663 C 28.371 26.045 28.604 25.186 28.451 24.387 C 30.937 21.122 32.183 17.321 32.124 13.734 Z"/>
  <path style="fill: rgb(241, 224, 210);" d="M 29.902 15.053 C 30.19 11.645 29.155 8.575 26.989 6.409 C 25.366 4.786 23.186 3.784 20.752 3.519 C 19.57 5.677 17.281 7.098 14.702 7.098 C 12.654 7.098 10.725 6.196 9.409 4.623 C 9.024 4.161 8.336 4.1 7.875 4.486 C 7.414 4.872 7.353 5.559 7.739 6.02 C 7.742 6.024 7.745 6.027 7.748 6.03 C 7.509 6.247 7.274 6.469 7.044 6.7 C 6.184 7.559 5.426 8.476 4.769 9.431 C 2.287 10.476 0.544 12.93 0.544 15.791 C 0.544 17.167 0.947 18.448 1.641 19.523 C 1.735 22.79 2.915 25.868 5.231 28.185 C 7.52 30.474 10.553 31.654 13.777 31.773 C 17.914 30.469 21.875 28.116 25.177 24.814 C 27.925 22.066 29.603 18.599 29.902 15.053 Z"/>
  <path style="fill: rgb(198, 74, 74);" d="M 17.606 23.778 L 17.606 31.038 C 19.611 31.038 21.237 29.413 21.237 27.408 C 21.237 25.403 19.611 23.778 17.606 23.778 Z"/>
  <path style="fill: rgb(212, 119, 119);" d="M 19.058 27.408 C 19.058 25.403 18.408 23.778 17.606 23.778 C 15.601 23.778 13.976 25.403 13.976 27.408 C 13.976 29.413 15.601 31.038 17.606 31.038 C 18.408 31.038 19.058 29.413 19.058 27.408 Z"/>
  <path style="fill: rgb(198, 82, 74);" d="M 27.408 6.716 L 27.408 13.976 C 29.413 13.976 31.038 12.351 31.038 10.346 C 31.038 8.341 29.413 6.716 27.408 6.716 Z"/>
  <path style="fill: rgb(212, 119, 119);" d="M 28.86 10.346 C 28.86 8.341 28.21 6.716 27.408 6.716 C 25.403 6.716 23.778 8.341 23.778 10.346 C 23.778 12.351 25.403 13.976 27.408 13.976 C 28.21 13.976 28.86 12.351 28.86 10.346 Z"/>
  <path style="fill: rgb(198, 74, 74);" d="M 7.767 21.27 L 7.767 26.633 C 9.248 26.633 10.449 25.433 10.449 23.952 C 10.449 22.471 9.248 21.27 7.767 21.27 Z"/>
  <path style="fill: rgb(212, 119, 119);" d="M 9.211 23.952 C 9.211 22.471 8.565 21.27 7.767 21.27 C 6.287 21.27 5.086 22.471 5.086 23.952 C 5.086 25.433 6.287 26.633 7.767 26.633 C 8.565 26.633 9.211 25.433 9.211 23.952 Z"/>
  <path d="M 14.654 24.456 C 14.18 24.93 13.824 25.518 13.624 26.156 C 13.534 26.443 13.694 26.748 13.981 26.838 C 14.268 26.928 14.573 26.769 14.663 26.482 C 14.813 26.004 15.069 25.581 15.424 25.226 C 16.627 24.023 18.585 24.023 19.788 25.226 C 20.991 26.429 20.991 28.387 19.788 29.59 C 18.585 30.793 16.627 30.793 15.424 29.59 C 15.069 29.234 14.813 28.812 14.663 28.334 C 14.573 28.047 14.268 27.887 13.981 27.977 C 13.694 28.067 13.534 28.373 13.624 28.66 C 13.824 29.298 14.18 29.886 14.654 30.36 C 15.468 31.174 16.537 31.581 17.607 31.581 C 18.676 31.581 19.745 31.174 20.558 30.36 C 22.186 28.732 22.186 26.084 20.558 24.456 C 18.93 22.828 16.282 22.828 14.654 24.456 Z" style=""/>
  <path d="M 24.456 7.394 C 23.982 7.868 23.626 8.456 23.426 9.094 C 23.335 9.381 23.495 9.686 23.782 9.777 C 24.069 9.867 24.375 9.707 24.465 9.42 C 24.614 8.942 24.871 8.519 25.226 8.164 C 26.429 6.961 28.387 6.961 29.59 8.164 C 30.793 9.367 30.793 11.325 29.59 12.528 C 28.387 13.731 26.429 13.731 25.226 12.528 C 24.871 12.172 24.614 11.75 24.465 11.272 C 24.375 10.985 24.069 10.826 23.782 10.916 C 23.495 11.005 23.335 11.311 23.426 11.598 C 23.626 12.236 23.982 12.824 24.456 13.298 C 25.27 14.112 26.339 14.519 27.408 14.519 C 28.477 14.519 29.546 14.112 30.36 13.298 C 31.988 11.67 31.988 9.022 30.36 7.394 C 28.732 5.766 26.084 5.766 24.456 7.394 Z" style=""/>
  <path d="M 33.76 10.346 C 33.76 8.806 33.202 7.32 32.189 6.163 C 31.223 5.061 29.909 4.327 28.474 4.084 C 27.237 2.962 25.799 2.108 24.191 1.54 C 24.149 0.804 23.608 0.163 22.851 0.026 C 22.755 0.009 22.657 0 22.559 0 C 21.951 0 21.412 0.336 21.131 0.845 C 17.237 0.403 13.04 1.526 9.484 3.965 C 9.218 3.786 8.902 3.688 8.573 3.688 C 8.191 3.688 7.819 3.823 7.526 4.068 C 7.191 4.348 6.986 4.742 6.947 5.177 C 6.924 5.437 6.962 5.692 7.057 5.928 C 6.92 6.057 6.787 6.187 6.659 6.315 C 5.831 7.142 5.075 8.042 4.41 8.993 C 1.725 10.191 0 12.841 0 15.791 C 0 17.174 0.38 18.518 1.101 19.689 C 1.236 23.137 2.562 26.286 4.846 28.57 C 7.127 30.85 10.139 32.141 13.567 32.309 C 14.703 33.246 16.13 33.76 17.606 33.76 C 20.299 33.76 22.675 32.083 23.582 29.564 C 24.347 29.085 25.092 28.543 25.801 27.948 C 25.853 27.95 25.904 27.952 25.956 27.952 C 26.781 27.952 27.555 27.631 28.138 27.048 C 28.802 26.384 29.124 25.459 29.023 24.533 C 31.398 21.336 32.688 17.577 32.671 13.903 C 33.385 12.849 33.76 11.624 33.76 10.346 Z M 20.823 1.908 C 20.069 4.631 17.581 6.553 14.702 6.553 C 13.034 6.553 11.451 5.903 10.269 4.75 C 13.517 2.575 17.301 1.556 20.823 1.908 Z M 28.018 24.057 C 27.924 24.18 27.887 24.337 27.917 24.489 C 28.041 25.141 27.836 25.81 27.368 26.279 C 26.991 26.655 26.489 26.863 25.956 26.863 C 25.869 26.863 25.78 26.857 25.693 26.846 C 25.54 26.825 25.385 26.871 25.267 26.972 C 24.499 27.633 23.684 28.227 22.846 28.739 C 22.735 28.806 22.652 28.912 22.612 29.035 C 21.906 31.21 19.894 32.671 17.606 32.671 C 16.329 32.671 15.097 32.207 14.136 31.364 C 14.042 31.281 13.922 31.233 13.797 31.229 C 10.57 31.11 7.741 29.924 5.617 27.8 C 3.466 25.649 2.279 22.782 2.185 19.507 C 2.182 19.408 2.152 19.312 2.098 19.228 C 1.438 18.204 1.089 17.016 1.089 15.791 C 1.089 13.227 2.617 10.928 4.98 9.933 C 5.076 9.892 5.158 9.826 5.217 9.74 C 5.867 8.796 6.611 7.902 7.429 7.085 C 7.644 6.87 7.874 6.651 8.113 6.434 C 8.33 6.238 8.353 5.905 8.166 5.681 L 8.157 5.671 C 8.063 5.559 8.019 5.418 8.032 5.273 C 8.045 5.128 8.113 4.997 8.225 4.904 C 8.35 4.799 8.484 4.777 8.573 4.777 C 8.736 4.777 8.888 4.848 8.992 4.972 C 10.411 6.669 12.454 7.642 14.663 7.642 C 18.265 7.642 21.383 5.074 22.024 1.536 C 22.071 1.277 22.296 1.089 22.559 1.089 C 22.592 1.089 22.625 1.092 22.657 1.098 C 22.953 1.151 23.15 1.435 23.096 1.731 C 23.093 1.748 23.089 1.766 23.086 1.783 L 23.079 1.818 C 23.027 2.089 23.186 2.356 23.449 2.44 C 25.124 2.971 26.607 3.83 27.856 4.994 C 27.937 5.071 28.04 5.12 28.151 5.135 C 30.728 5.499 32.672 7.74 32.672 10.346 C 32.672 11.455 32.33 12.516 31.682 13.416 C 31.614 13.511 31.578 13.625 31.58 13.743 C 31.638 17.3 30.373 20.964 28.018 24.057 Z" style=""/>
  <circle cx="16.88" cy="16.88" r="0.544" style=""/>
  <circle cx="19.058" cy="14.702" r="0.544" style=""/>
  <circle cx="24.867" cy="21.599" r="0.544" style=""/>
  <circle cx="9.62" cy="28.134" r="0.544" style=""/>
  <path d="M 9.888 22.281 C 9.743 22.37 9.698 22.562 9.787 22.707 C 10.018 23.08 10.14 23.51 10.14 23.952 C 10.14 25.26 9.075 26.324 7.767 26.324 C 6.459 26.324 5.395 25.26 5.395 23.952 C 5.395 22.644 6.459 21.579 7.767 21.579 C 8.208 21.579 8.639 21.701 9.012 21.932 C 9.157 22.022 9.349 21.976 9.438 21.832 C 9.528 21.686 9.483 21.496 9.337 21.406 C 8.866 21.115 8.323 20.961 7.767 20.961 C 6.118 20.961 4.776 22.303 4.776 23.952 C 4.776 25.601 6.118 26.943 7.767 26.943 C 9.416 26.943 10.759 25.601 10.759 23.952 C 10.759 23.396 10.605 22.853 10.313 22.382 C 10.223 22.236 10.033 22.191 9.888 22.281 Z" style=""/>
  <path style="fill: rgb(198, 82, 74);" d="M 6.89 11.332 L 6.89 18.592 C 8.895 18.592 10.52 16.967 10.52 14.962 C 10.52 12.957 8.895 11.332 6.89 11.332 Z"/>
  <path style="fill: rgb(212, 119, 119);" d="M 8.342 14.962 C 8.342 12.957 7.692 11.332 6.89 11.332 C 4.885 11.332 3.26 12.957 3.26 14.962 C 3.26 16.967 4.885 18.592 6.89 18.592 C 7.692 18.592 8.342 16.967 8.342 14.962 Z"/>
  <path d="M 3.938 12.01 C 3.464 12.484 3.108 13.072 2.908 13.71 C 2.817 13.997 2.977 14.302 3.264 14.393 C 3.551 14.483 3.857 14.323 3.947 14.036 C 4.096 13.558 4.353 13.135 4.708 12.78 C 5.911 11.577 7.869 11.577 9.072 12.78 C 10.275 13.983 10.275 15.941 9.072 17.144 C 7.869 18.347 5.911 18.347 4.708 17.144 C 4.353 16.788 4.096 16.366 3.947 15.888 C 3.857 15.601 3.551 15.442 3.264 15.532 C 2.977 15.621 2.817 15.927 2.908 16.214 C 3.108 16.852 3.464 17.44 3.938 17.914 C 4.752 18.728 5.821 19.135 6.89 19.135 C 7.959 19.135 9.028 18.728 9.842 17.914 C 11.47 16.286 11.47 13.638 9.842 12.01 C 8.214 10.382 5.566 10.382 3.938 12.01 Z" style=""/>
  <circle cx="16.88" cy="16.88" r="0.544" style="" transform="matrix(1, 0, 0, 1, 5.971083, 1.454179)"/>
</svg>